<mxfile host="app.diagrams.net" agent="Mozilla/5.0 (Windows NT 10.0; Win64; x64) AppleWebKit/537.36 (KHTML, like Gecko) Chrome/128.0.0.0 Safari/537.36" version="24.7.13">
  <diagram name="Page-1" id="vYqEJSk6TVLu_UgfLXz2">
    <mxGraphModel dx="1687" dy="1049" grid="1" gridSize="10" guides="1" tooltips="1" connect="1" arrows="1" fold="1" page="1" pageScale="1" pageWidth="850" pageHeight="1100" math="0" shadow="0">
      <root>
        <mxCell id="0" />
        <mxCell id="1" parent="0" />
        <mxCell id="Bm8xm5JQCuaPKHjjqUdn-1" value="Field" style="swimlane;fontStyle=1;align=center;verticalAlign=top;childLayout=stackLayout;horizontal=1;startSize=26;horizontalStack=0;resizeParent=1;resizeParentMax=0;resizeLast=0;collapsible=1;marginBottom=0;whiteSpace=wrap;html=1;" vertex="1" parent="1">
          <mxGeometry x="300" y="50" width="160" height="60" as="geometry" />
        </mxCell>
        <mxCell id="Bm8xm5JQCuaPKHjjqUdn-2" value="+ value" style="text;strokeColor=none;fillColor=none;align=left;verticalAlign=top;spacingLeft=4;spacingRight=4;overflow=hidden;rotatable=0;points=[[0,0.5],[1,0.5]];portConstraint=eastwest;whiteSpace=wrap;html=1;" vertex="1" parent="Bm8xm5JQCuaPKHjjqUdn-1">
          <mxGeometry y="26" width="160" height="26" as="geometry" />
        </mxCell>
        <mxCell id="Bm8xm5JQCuaPKHjjqUdn-3" value="" style="line;strokeWidth=1;fillColor=none;align=left;verticalAlign=middle;spacingTop=-1;spacingLeft=3;spacingRight=3;rotatable=0;labelPosition=right;points=[];portConstraint=eastwest;strokeColor=inherit;" vertex="1" parent="Bm8xm5JQCuaPKHjjqUdn-1">
          <mxGeometry y="52" width="160" height="8" as="geometry" />
        </mxCell>
        <mxCell id="Bm8xm5JQCuaPKHjjqUdn-23" style="edgeStyle=orthogonalEdgeStyle;rounded=0;orthogonalLoop=1;jettySize=auto;html=1;endArrow=none;endFill=0;" edge="1" parent="1" source="Bm8xm5JQCuaPKHjjqUdn-5">
          <mxGeometry relative="1" as="geometry">
            <mxPoint x="380" y="160" as="targetPoint" />
            <Array as="points">
              <mxPoint x="160" y="160" />
            </Array>
          </mxGeometry>
        </mxCell>
        <mxCell id="Bm8xm5JQCuaPKHjjqUdn-5" value="Name" style="swimlane;fontStyle=1;align=center;verticalAlign=top;childLayout=stackLayout;horizontal=1;startSize=26;horizontalStack=0;resizeParent=1;resizeParentMax=0;resizeLast=0;collapsible=1;marginBottom=0;whiteSpace=wrap;html=1;" vertex="1" parent="1">
          <mxGeometry x="80" y="190" width="160" height="60" as="geometry" />
        </mxCell>
        <mxCell id="Bm8xm5JQCuaPKHjjqUdn-6" value="+ value" style="text;strokeColor=none;fillColor=none;align=left;verticalAlign=top;spacingLeft=4;spacingRight=4;overflow=hidden;rotatable=0;points=[[0,0.5],[1,0.5]];portConstraint=eastwest;whiteSpace=wrap;html=1;" vertex="1" parent="Bm8xm5JQCuaPKHjjqUdn-5">
          <mxGeometry y="26" width="160" height="26" as="geometry" />
        </mxCell>
        <mxCell id="Bm8xm5JQCuaPKHjjqUdn-7" value="" style="line;strokeWidth=1;fillColor=none;align=left;verticalAlign=middle;spacingTop=-1;spacingLeft=3;spacingRight=3;rotatable=0;labelPosition=right;points=[];portConstraint=eastwest;strokeColor=inherit;" vertex="1" parent="Bm8xm5JQCuaPKHjjqUdn-5">
          <mxGeometry y="52" width="160" height="8" as="geometry" />
        </mxCell>
        <mxCell id="Bm8xm5JQCuaPKHjjqUdn-21" style="edgeStyle=orthogonalEdgeStyle;rounded=0;orthogonalLoop=1;jettySize=auto;html=1;entryX=0.5;entryY=1;entryDx=0;entryDy=0;endArrow=block;endFill=0;" edge="1" parent="1" source="Bm8xm5JQCuaPKHjjqUdn-12" target="Bm8xm5JQCuaPKHjjqUdn-1">
          <mxGeometry relative="1" as="geometry" />
        </mxCell>
        <mxCell id="Bm8xm5JQCuaPKHjjqUdn-12" value="Phone" style="swimlane;fontStyle=1;align=center;verticalAlign=top;childLayout=stackLayout;horizontal=1;startSize=26;horizontalStack=0;resizeParent=1;resizeParentMax=0;resizeLast=0;collapsible=1;marginBottom=0;whiteSpace=wrap;html=1;" vertex="1" parent="1">
          <mxGeometry x="300" y="190" width="160" height="86" as="geometry" />
        </mxCell>
        <mxCell id="Bm8xm5JQCuaPKHjjqUdn-13" value="+ value" style="text;strokeColor=none;fillColor=none;align=left;verticalAlign=top;spacingLeft=4;spacingRight=4;overflow=hidden;rotatable=0;points=[[0,0.5],[1,0.5]];portConstraint=eastwest;whiteSpace=wrap;html=1;" vertex="1" parent="Bm8xm5JQCuaPKHjjqUdn-12">
          <mxGeometry y="26" width="160" height="26" as="geometry" />
        </mxCell>
        <mxCell id="Bm8xm5JQCuaPKHjjqUdn-14" value="" style="line;strokeWidth=1;fillColor=none;align=left;verticalAlign=middle;spacingTop=-1;spacingLeft=3;spacingRight=3;rotatable=0;labelPosition=right;points=[];portConstraint=eastwest;strokeColor=inherit;" vertex="1" parent="Bm8xm5JQCuaPKHjjqUdn-12">
          <mxGeometry y="52" width="160" height="8" as="geometry" />
        </mxCell>
        <mxCell id="Bm8xm5JQCuaPKHjjqUdn-15" value="+ validate()" style="text;strokeColor=none;fillColor=none;align=left;verticalAlign=top;spacingLeft=4;spacingRight=4;overflow=hidden;rotatable=0;points=[[0,0.5],[1,0.5]];portConstraint=eastwest;whiteSpace=wrap;html=1;" vertex="1" parent="Bm8xm5JQCuaPKHjjqUdn-12">
          <mxGeometry y="60" width="160" height="26" as="geometry" />
        </mxCell>
        <mxCell id="Bm8xm5JQCuaPKHjjqUdn-22" style="edgeStyle=orthogonalEdgeStyle;rounded=0;orthogonalLoop=1;jettySize=auto;html=1;endArrow=none;endFill=0;" edge="1" parent="1" source="Bm8xm5JQCuaPKHjjqUdn-16">
          <mxGeometry relative="1" as="geometry">
            <mxPoint x="380" y="140" as="targetPoint" />
            <Array as="points">
              <mxPoint x="610" y="160" />
              <mxPoint x="380" y="160" />
            </Array>
          </mxGeometry>
        </mxCell>
        <mxCell id="Bm8xm5JQCuaPKHjjqUdn-16" value="Birthday" style="swimlane;fontStyle=1;align=center;verticalAlign=top;childLayout=stackLayout;horizontal=1;startSize=26;horizontalStack=0;resizeParent=1;resizeParentMax=0;resizeLast=0;collapsible=1;marginBottom=0;whiteSpace=wrap;html=1;" vertex="1" parent="1">
          <mxGeometry x="530" y="190" width="160" height="86" as="geometry" />
        </mxCell>
        <mxCell id="Bm8xm5JQCuaPKHjjqUdn-17" value="+ value" style="text;strokeColor=none;fillColor=none;align=left;verticalAlign=top;spacingLeft=4;spacingRight=4;overflow=hidden;rotatable=0;points=[[0,0.5],[1,0.5]];portConstraint=eastwest;whiteSpace=wrap;html=1;" vertex="1" parent="Bm8xm5JQCuaPKHjjqUdn-16">
          <mxGeometry y="26" width="160" height="26" as="geometry" />
        </mxCell>
        <mxCell id="Bm8xm5JQCuaPKHjjqUdn-18" value="" style="line;strokeWidth=1;fillColor=none;align=left;verticalAlign=middle;spacingTop=-1;spacingLeft=3;spacingRight=3;rotatable=0;labelPosition=right;points=[];portConstraint=eastwest;strokeColor=inherit;" vertex="1" parent="Bm8xm5JQCuaPKHjjqUdn-16">
          <mxGeometry y="52" width="160" height="8" as="geometry" />
        </mxCell>
        <mxCell id="Bm8xm5JQCuaPKHjjqUdn-19" value="+ validate()" style="text;strokeColor=none;fillColor=none;align=left;verticalAlign=top;spacingLeft=4;spacingRight=4;overflow=hidden;rotatable=0;points=[[0,0.5],[1,0.5]];portConstraint=eastwest;whiteSpace=wrap;html=1;" vertex="1" parent="Bm8xm5JQCuaPKHjjqUdn-16">
          <mxGeometry y="60" width="160" height="26" as="geometry" />
        </mxCell>
        <mxCell id="Bm8xm5JQCuaPKHjjqUdn-38" style="edgeStyle=orthogonalEdgeStyle;rounded=0;orthogonalLoop=1;jettySize=auto;html=1;entryX=0.5;entryY=1;entryDx=0;entryDy=0;" edge="1" parent="1" source="Bm8xm5JQCuaPKHjjqUdn-24" target="Bm8xm5JQCuaPKHjjqUdn-5">
          <mxGeometry relative="1" as="geometry" />
        </mxCell>
        <mxCell id="Bm8xm5JQCuaPKHjjqUdn-24" value="Record" style="swimlane;fontStyle=1;align=center;verticalAlign=top;childLayout=stackLayout;horizontal=1;startSize=26;horizontalStack=0;resizeParent=1;resizeParentMax=0;resizeLast=0;collapsible=1;marginBottom=0;whiteSpace=wrap;html=1;movable=0;resizable=0;rotatable=0;deletable=0;editable=0;locked=1;connectable=0;" vertex="1" parent="1">
          <mxGeometry x="300" y="360" width="160" height="180" as="geometry" />
        </mxCell>
        <mxCell id="Bm8xm5JQCuaPKHjjqUdn-25" value="+ name&lt;div&gt;+ phones&lt;/div&gt;&lt;div&gt;+ birthday&lt;/div&gt;" style="text;strokeColor=none;fillColor=none;align=left;verticalAlign=top;spacingLeft=4;spacingRight=4;overflow=hidden;rotatable=0;points=[[0,0.5],[1,0.5]];portConstraint=eastwest;whiteSpace=wrap;html=1;" vertex="1" parent="Bm8xm5JQCuaPKHjjqUdn-24">
          <mxGeometry y="26" width="160" height="54" as="geometry" />
        </mxCell>
        <mxCell id="Bm8xm5JQCuaPKHjjqUdn-26" value="" style="line;strokeWidth=1;fillColor=none;align=left;verticalAlign=middle;spacingTop=-1;spacingLeft=3;spacingRight=3;rotatable=0;labelPosition=right;points=[];portConstraint=eastwest;strokeColor=inherit;" vertex="1" parent="Bm8xm5JQCuaPKHjjqUdn-24">
          <mxGeometry y="80" width="160" height="8" as="geometry" />
        </mxCell>
        <mxCell id="Bm8xm5JQCuaPKHjjqUdn-27" value="+ &lt;span class=&quot;hljs-built_in&quot;&gt;add_phone&lt;/span&gt;()&lt;div&gt;+&amp;nbsp;&lt;span class=&quot;hljs-built_in&quot;&gt;remove_phone&lt;/span&gt;()&lt;/div&gt;&lt;div&gt;&lt;span class=&quot;hljs-built_in&quot;&gt;+ edit_phone&lt;/span&gt;()&lt;/div&gt;&lt;div&gt;&lt;span class=&quot;hljs-built_in&quot;&gt;+ find_phone&lt;/span&gt;()&lt;/div&gt;&lt;div&gt;&lt;span class=&quot;hljs-built_in&quot;&gt;+ add_birthday&lt;/span&gt;()&lt;/div&gt;" style="text;strokeColor=none;fillColor=none;align=left;verticalAlign=top;spacingLeft=4;spacingRight=4;overflow=hidden;rotatable=0;points=[[0,0.5],[1,0.5]];portConstraint=eastwest;whiteSpace=wrap;html=1;" vertex="1" parent="Bm8xm5JQCuaPKHjjqUdn-24">
          <mxGeometry y="88" width="160" height="92" as="geometry" />
        </mxCell>
        <mxCell id="Bm8xm5JQCuaPKHjjqUdn-28" value="UserDict" style="html=1;whiteSpace=wrap;" vertex="1" parent="1">
          <mxGeometry x="325" y="870" width="110" height="50" as="geometry" />
        </mxCell>
        <mxCell id="Bm8xm5JQCuaPKHjjqUdn-41" style="edgeStyle=orthogonalEdgeStyle;rounded=0;orthogonalLoop=1;jettySize=auto;html=1;entryX=0.5;entryY=0;entryDx=0;entryDy=0;endArrow=block;endFill=0;" edge="1" parent="1" source="Bm8xm5JQCuaPKHjjqUdn-29" target="Bm8xm5JQCuaPKHjjqUdn-28">
          <mxGeometry relative="1" as="geometry" />
        </mxCell>
        <mxCell id="Bm8xm5JQCuaPKHjjqUdn-29" value="AddressBook" style="swimlane;fontStyle=1;align=center;verticalAlign=top;childLayout=stackLayout;horizontal=1;startSize=26;horizontalStack=0;resizeParent=1;resizeParentMax=0;resizeLast=0;collapsible=1;marginBottom=0;whiteSpace=wrap;html=1;" vertex="1" parent="1">
          <mxGeometry x="300" y="610" width="160" height="150" as="geometry" />
        </mxCell>
        <mxCell id="Bm8xm5JQCuaPKHjjqUdn-30" value="+ data" style="text;strokeColor=none;fillColor=none;align=left;verticalAlign=top;spacingLeft=4;spacingRight=4;overflow=hidden;rotatable=0;points=[[0,0.5],[1,0.5]];portConstraint=eastwest;whiteSpace=wrap;html=1;" vertex="1" parent="Bm8xm5JQCuaPKHjjqUdn-29">
          <mxGeometry y="26" width="160" height="34" as="geometry" />
        </mxCell>
        <mxCell id="Bm8xm5JQCuaPKHjjqUdn-31" value="" style="line;strokeWidth=1;fillColor=none;align=left;verticalAlign=middle;spacingTop=-1;spacingLeft=3;spacingRight=3;rotatable=0;labelPosition=right;points=[];portConstraint=eastwest;strokeColor=inherit;" vertex="1" parent="Bm8xm5JQCuaPKHjjqUdn-29">
          <mxGeometry y="60" width="160" height="8" as="geometry" />
        </mxCell>
        <mxCell id="Bm8xm5JQCuaPKHjjqUdn-32" value="+ &lt;span class=&quot;hljs-built_in&quot;&gt;add_record(&lt;/span&gt;&lt;span style=&quot;background-color: initial;&quot;&gt;)&lt;/span&gt;&lt;div&gt;&lt;span style=&quot;background-color: initial;&quot;&gt;+ find()&lt;/span&gt;&lt;/div&gt;&lt;div&gt;&lt;span style=&quot;background-color: initial;&quot;&gt;+ delete()&lt;/span&gt;&lt;/div&gt;&lt;div&gt;+ get_upcoming_birthdays()&lt;/div&gt;" style="text;strokeColor=none;fillColor=none;align=left;verticalAlign=top;spacingLeft=4;spacingRight=4;overflow=hidden;rotatable=0;points=[[0,0.5],[1,0.5]];portConstraint=eastwest;whiteSpace=wrap;html=1;" vertex="1" parent="Bm8xm5JQCuaPKHjjqUdn-29">
          <mxGeometry y="68" width="160" height="82" as="geometry" />
        </mxCell>
        <mxCell id="Bm8xm5JQCuaPKHjjqUdn-33" style="edgeStyle=orthogonalEdgeStyle;rounded=0;orthogonalLoop=1;jettySize=auto;html=1;entryX=0.501;entryY=0.967;entryDx=0;entryDy=0;entryPerimeter=0;" edge="1" parent="1" source="Bm8xm5JQCuaPKHjjqUdn-24" target="Bm8xm5JQCuaPKHjjqUdn-15">
          <mxGeometry relative="1" as="geometry" />
        </mxCell>
        <mxCell id="Bm8xm5JQCuaPKHjjqUdn-40" style="edgeStyle=orthogonalEdgeStyle;rounded=0;orthogonalLoop=1;jettySize=auto;html=1;startArrow=classic;startFill=1;endArrow=none;endFill=0;" edge="1" parent="1" source="Bm8xm5JQCuaPKHjjqUdn-16">
          <mxGeometry relative="1" as="geometry">
            <mxPoint x="460" y="450" as="targetPoint" />
            <Array as="points">
              <mxPoint x="500" y="233" />
              <mxPoint x="500" y="450" />
            </Array>
          </mxGeometry>
        </mxCell>
        <mxCell id="Bm8xm5JQCuaPKHjjqUdn-43" style="edgeStyle=orthogonalEdgeStyle;rounded=0;orthogonalLoop=1;jettySize=auto;html=1;entryX=0.495;entryY=0.989;entryDx=0;entryDy=0;entryPerimeter=0;" edge="1" parent="1" source="Bm8xm5JQCuaPKHjjqUdn-29" target="Bm8xm5JQCuaPKHjjqUdn-27">
          <mxGeometry relative="1" as="geometry" />
        </mxCell>
      </root>
    </mxGraphModel>
  </diagram>
</mxfile>